<svg xmlns="http://www.w3.org/2000/svg" viewBox="0 0 256 256" width="256" height="256">
  <defs>
    <linearGradient id="bg" x1="0" y1="0" x2="0" y2="1">
      <stop offset="0" stop-color="#2b9bff"/>
      <stop offset="1" stop-color="#0a66d6"/>
    </linearGradient>
  </defs>

  <rect x="8" y="8" width="240" height="240" rx="54" fill="url(#bg)"/>

  <path d="M108,74 L174,74 L200,100 L200,192 Q200,204 188,204 L108,204 Q96,204 96,192 L96,86 Q96,74 108,74 Z"
        fill="#ffffff" fill-opacity="0.35"/>

  <path d="M68,50 L134,50 L160,76 L160,168 Q160,180 148,180 L68,180 Q56,180 56,168 L56,62 Q56,50 68,50 Z"
        fill="#ffffff"/>
  <path d="M134,50 L160,50 L160,76 Z" fill="#c7dffc"/>
  <line x1="134" y1="50" x2="160" y2="76" stroke="#a9c9ef" stroke-width="2"/>

  <rect x="72" y="96" width="72" height="10" rx="5" fill="#0a84ff" fill-opacity="0.55"/>
  <rect x="72" y="120" width="72" height="10" rx="5" fill="#0a84ff" fill-opacity="0.55"/>
  <rect x="72" y="144" width="46" height="10" rx="5" fill="#0a84ff" fill-opacity="0.55"/>
</svg>
